<?xml version="1.0" encoding="UTF-8"?>
<svg id="Layer_1" data-name="Layer 1" xmlns="http://www.w3.org/2000/svg" viewBox="0 0 842.38 263.78">
  <defs>
    <style>
      .cls-1, .cls-2 {
        fill: #fff;
      }

      .cls-3 {
        fill: #231f20;
      }

      .cls-4 {
        fill: #629bd3;
      }

      .cls-5 {
        fill: #2b547b;
      }

      .cls-6 {
        fill: #3c2415;
      }

      .cls-2, .cls-7 {
        stroke: #000;
      }

      .cls-2, .cls-7, .cls-8, .cls-9 {
        stroke-miterlimit: 10;
      }

      .cls-7 {
        fill: #c74327;
      }

      .cls-8 {
        stroke: #3c2415;
      }

      .cls-8, .cls-9 {
        fill: none;
      }

      .cls-9 {
        stroke: #2b547b;
        stroke-width: .99px;
      }
    </style>
  </defs>
  <rect class="cls-5" x=".36" width="841.89" height="168.91"/>
  <rect class="cls-9" x=".72" y="13.63" width="841.17" height="112.26"/>
  <rect class="cls-1" y="20.22" width="841.89" height="130.34"/>
  <g>
    <rect class="cls-4" x=".36" y="34.72" width="841.89" height="99.63"/>
    <g>
      <path class="cls-3" d="M11.83,88.2h4.21v-25.14c0-14.95,8.41-18.88,17.48-18.88s17.76,3.27,17.76,18.88v57.67h-11.87v-21.31h-11.22v21.31h-12.15v-21.31H7.16l4.67-11.21Zm27.57-25.98c0-5.33-2.15-6.73-5.61-6.73-3.74,0-5.61,1.59-5.61,6.73v25.98h11.22v-25.98Z"/>
      <path class="cls-3" d="M104.82,57.26h-10.09v63.46h-11.87V57.26h-13.08l4.67-11.5h30.37v11.5Z"/>
      <path class="cls-3" d="M126.31,45.77h12.15v42.43h11.22V45.77h11.87V120.72h-11.87v-21.31h-11.22v21.31h-12.15V45.77Z"/>
      <path class="cls-3" d="M200.52,101.37c0,7.48,2.34,11.4,20.09,7.48v11.68c-29.16,5.79-32.24-4.67-32.24-20.38v-33.83c0-15.7,3.08-26.17,32.24-20.37v11.68c-17.76-3.93-20.09,0-20.09,7.48v23.08h17.76v11.21h-17.76v1.96Z"/>
      <path class="cls-3" d="M281.08,104.37c0,13.08,4.67,16.36,4.67,16.36h-11.87s-4.67-1.59-4.67-16.36V62.59c0-3.93-2.15-6.26-5.61-6.26-3.74,0-5.61,2.34-5.61,6.26v58.13h-12.15V45.77h12.15v4.21s1.87-4.86,10-4.86,13.08,3.46,13.08,19.81v39.44Z"/>
      <path class="cls-3" d="M319.86,120.72h-11.87V45.77h11.87V120.72Z"/>
      <path class="cls-3" d="M346.68,63.06c0-14.95,8.41-18.88,17.57-18.88,8.6,0,17.76,3.27,17.76,18.88v57.67h-11.96v-21.31h-11.22v21.31h-12.15V63.06Zm23.36-.84c0-5.33-2.06-6.73-5.61-6.73-3.74,0-5.61,1.59-5.61,6.73v25.98h11.22v-25.98Z"/>
      <path class="cls-3" d="M444.06,104.37c0,13.08,4.67,16.36,4.67,16.36h-11.87s-4.67-1.59-4.67-16.36V62.59c0-3.93-2.15-6.26-5.61-6.26-3.74,0-5.61,2.34-5.61,6.26v58.13h-12.15V45.77h12.15v4.21s1.87-4.86,10-4.86,13.08,3.46,13.08,19.81v39.44Z"/>
    </g>
    <g>
      <path class="cls-3" d="M585.16,66.25c0-15.7,3.08-26.17,32.24-20.37v11.68c-17.76-3.93-20.09,0-20.09,7.48v39.25c0,5.14,1.87,6.73,5.61,6.73s5.42-1.4,5.42-6.73v-4.95h-7.94l4.67-11.21h15.42v15.23c0,15.42-9.35,18.88-17.76,18.88-9.16,0-17.57-3.93-17.57-18.88v-37.1Z"/>
      <path class="cls-3" d="M659.73,45.69c15.7,0,20.37,4.02,20.37,19.63,0,12.8-.75,20.47-7.29,25.61h7.29v13.37c0,12.99,4.67,16.36,4.67,16.36h-11.96c-.19,.09-4.67-1.96-4.67-16.36v-4.95h-11.21v21.31h-12.15V45.69h14.95Zm-2.8,42.43h2.8c6.08,0,8.41-6.17,8.41-18.88v-4.58c0-6.08-1.4-7.48-7.94-7.48h-3.27v30.94Z"/>
      <path class="cls-3" d="M718.61,120.64h-11.87V45.69h11.87V120.64Z"/>
      <path class="cls-3" d="M775.81,120.64h-29.16V45.69h12.15V109.71h17.01v10.93Z"/>
      <path class="cls-3" d="M827.39,120.64h-29.16V45.69h12.15V109.71h17.01v10.93Z"/>
    </g>
    <g>
      <g>
        <path class="cls-2" d="M517.28,17.92l-1.34,75.41c-.02,1.05,.83,1.91,1.87,1.91h38.39c2.52,0,5.92-3.11,6.4-4.91,.29-27.1-3.67-36.3-10.08-43.85-13.95-16.42-19.17-18.25-29.99-29.89-.62-1.1-4.98-5.64-5.25,1.33Z"/>
        <path class="cls-6" d="M459.81,102.42h112.26c1.83,0,2.79,2.37,1.5,3.76-18.96,20.61-52.74,34.95-77.13,24.86-19.24-7.97-32.14-19-38.03-24.76-1.4-1.37-.49-3.85,1.41-3.85Z"/>
        <path class="cls-2" d="M504.94,56.34c-5.08,5.89-3.45,8.72-11.43,17.98-4.47,5.18-12.73,10.04-17.2,15.22-.51,.59-.64,1.43-.32,2.15,.29,.67,.94,1.19,1.8,1.22l30.13,1.04c1.19,.04,2.16-.94,2.11-2.13l-1.5-34.24c-.08-1.85-2.38-2.64-3.59-1.24Z"/>
        <line class="cls-8" x1="512.47" y1="5" x2="512.47" y2="102.2"/>
      </g>
      <polygon class="cls-7" points="512.47 5 512.47 8.93 521.76 6.96 512.47 5"/>
    </g>
  </g>
</svg>